<?xml version="1.0" encoding="utf-8"?>
<!-- Generator: Adobe Illustrator 21.0.2, SVG Export Plug-In . SVG Version: 6.00 Build 0)  -->
<svg version="1.1" id="Слой_1" xmlns="http://www.w3.org/2000/svg" xmlns:xlink="http://www.w3.org/1999/xlink" x="0px" y="0px"
	 viewBox="0 0 61.7 62.4" style="enable-background:new 0 0 61.7 62.4;" xml:space="preserve">
<style type="text/css">
	.st0{fill:#CA2523;}
</style>
<path class="st0" d="M60.4,31.3C60.4,14.7,47,1.6,31,1.5C14.7,1.5,1.3,14.7,1.3,31.3c0,16.5,13.3,29.7,29.5,29.7
	C46.9,61,60.3,48,60.4,31.3 M61.6,31.3c0,17.2-14.1,31.3-31.6,30.9C13.5,61.8-0.4,48,0.1,30.4C0.5,13.2,14.7-0.2,31.7,0.3
	C48.5,0.8,61.7,14.7,61.6,31.3"/>
<path class="st0" d="M30,55.1c0-0.4-0.3-0.6-0.6-0.6c-0.3,0-0.5,0.3-0.5,0.6c0,0.3,0.3,0.6,0.6,0.6C29.7,55.7,30,55.4,30,55.1
	 M22.7,9.9c0.2-0.2,0.4-0.4,0.5-0.6c0.2-0.3,0.2-0.6,0.1-1C23.1,8,22.8,7.8,22.5,8c-0.3,0.1-0.4,0.4-0.4,0.7
	c0.1,0.1,0.2,0.2,0.1,0.4C22.1,9.4,22.4,9.6,22.7,9.9 M39.8,53.2c0.1,0.2,0.2,0.5,0.4,0.7c0.5-0.2,1-0.5,1.6-0.7
	c-0.1-0.2-0.1-0.4-0.2-0.5l-0.2-0.2c-0.4,0.1-0.4-0.2-0.4-0.4c-0.4-0.9-0.8-1.8-1.2-2.7c-0.1-0.2-0.2-0.3-0.2-0.5
	c-0.3,0.1-0.5,0.2-0.8,0.4c0,0.2,0.1,0.3,0,0.4c-0.1,0.1-0.2,0.2-0.4,0.4c0.1,0.2,0.2,0.4,0.3,0.6c0.2-0.1,0.3-0.1,0.5-0.1
	c0.4,0.8,0.7,1.7,1.2,2.5C40,53.1,39.9,53.2,39.8,53.2 M36.6,11.5c0.2-1,0.5-1.9,0.7-2.9c0.2,0,0.3,0,0.4-0.1
	c0.1-0.2,0.1-0.5,0.2-0.8c-0.7-0.2-1.3-0.3-1.9-0.5c-0.1,0.3-0.1,0.6-0.2,0.8c0.1,0.1,0.2,0.2,0.4,0.2c-0.2,1-0.5,1.9-0.7,2.9H35
	c-0.1,0.2-0.1,0.5-0.2,0.8c0.7,0.2,1.3,0.3,1.9,0.5c0.1-0.3,0.1-0.6,0.2-0.8C36.8,11.6,36.7,11.6,36.6,11.5 M13.8,15
	c0.7,0.7,1.4,1.4,2.1,2.1l-0.2,0.2c0.2,0.2,0.4,0.4,0.5,0.6c0.5-0.5,1-0.9,1.4-1.3c-0.2-0.2-0.3-0.4-0.5-0.6
	c-0.2,0.1-0.2,0.1-0.3,0.2c-0.7-0.7-1.4-1.4-2.1-2.1c0.1-0.1,0.1-0.2,0.2-0.3c-0.2-0.2-0.4-0.4-0.5-0.6c-0.5,0.5-0.9,0.9-1.4,1.4
	c0.2,0.2,0.4,0.4,0.5,0.6C13.7,15.1,13.8,15.1,13.8,15 M33.7,54.5c0.1-0.2,0.1-0.3,0.2-0.4c0.2-0.6,0.5-1.2,0.7-1.8
	c0.1-0.5-0.1-1-0.5-1.2c-0.5-0.3-1.3-0.2-1.7,0.2c-0.2,0.2-0.3,0.4-0.3,0.7c0,0.4,0.2,0.6,0.5,0.6c0.4,0.1,0.7-0.2,0.7-0.5
	c0-0.1,0-0.2,0-0.4c0.1,0.1,0.2,0.2,0.2,0.2c0,0.2,0,0.5-0.1,0.7c-0.1,0.4-0.4,0.8-0.5,1.2c-0.2,0.4-0.4,0.8-0.5,1.2
	c-0.1,0.3-0.1,0.6,0,0.9c0.9-0.1,1.7-0.2,2.6-0.3c-0.1-0.4-0.1-0.8-0.1-1.2C34.4,54.3,34.1,54.4,33.7,54.5 M43,51.4
	c-0.1-0.1-0.1-0.2-0.1-0.3c-0.2-0.3-0.5-0.4-0.8-0.2c-0.3,0.2-0.4,0.6-0.2,0.8c0.2,0.2,0.4,0.4,0.7,0.5c0.7,0.2,1.5-0.2,1.8-0.9
	c0.3-0.7,0.1-1.5-0.7-2c-0.2-0.1-0.4-0.2-0.5-0.2c-0.1-0.5-0.2-0.7-0.5-1c-0.4-0.4-1-0.5-1.5-0.2c-0.5,0.3-0.8,0.9-0.7,1.4
	c0.1,0.4,0.4,0.6,0.7,0.5c0.4-0.1,0.5-0.4,0.4-0.8c0-0.1-0.1-0.1-0.1-0.3c0.2,0.1,0.4,0.1,0.5,0.2c0.1,0.1,0.1,0.3,0,0.4
	c-0.1,0.1-0.2,0.3-0.2,0.4c0.1,0.1,0.1,0.2,0.2,0.3c0.1,0.1,0.2,0.2,0.2,0.3c0.7-0.3,1.1-0.2,1.2,0.3C43.6,51.1,43.4,51.3,43,51.4
	 M38.7,53.1c-0.1-0.7-0.2-1.5-0.7-2c-0.2-0.3-0.5-0.6-0.8-0.8c-0.6-0.4-1.3-0.2-1.8,0.4c-0.2,0.2-0.3,0.6-0.3,0.8
	c-0.2,1,0.1,2,0.8,2.8c0.2,0.2,0.5,0.4,0.7,0.6c0.6,0.2,1.3,0,1.6-0.6C38.6,53.8,38.6,53.5,38.7,53.1 M11.3,19.5
	c-0.4-0.8-0.4-0.8,0-1.2c0.8,0.6,1.6,1.1,2.4,1.7c-0.1,0.1-0.1,0.2-0.2,0.4c0.2,0.1,0.4,0.3,0.7,0.5c0.4-0.6,0.7-1.1,1.2-1.7
	c-0.2-0.2-0.5-0.3-0.7-0.5c-0.1,0.1-0.2,0.2-0.4,0.3c-0.8-0.6-1.6-1.1-2.4-1.7c0.2-0.7,0.7-0.4,1.2-0.4c0.1-0.2,0.3-0.4,0.5-0.7
	c-0.5-0.2-1.1-0.4-1.6-0.5c-0.7,1-1.4,2-2.1,3.1c0.4,0.4,0.7,0.9,1.1,1.3C11,20,11.1,19.8,11.3,19.5 M27,54.5c0.2-1,0.4-2,0.5-2.9
	c0.5,0.1,0.6,0.1,0.7,0.6c0.1,0.2,0.2,0.4,0.4,0.4c0.1,0,0.2,0,0.5,0.1c-0.1-0.5-0.1-0.9-0.1-1.3c0-0.2-0.1-0.4-0.4-0.4
	c-0.8-0.1-1.5-0.3-2.3-0.4c-0.3-0.1-0.7-0.1-1-0.2c-0.3,0.5-0.5,1-0.8,1.5c0.4,0.1,0.6,0.1,0.9,0.1c0.5-0.7,0.5-0.7,1-0.5
	c-0.2,0.9-0.4,1.9-0.5,2.8c-0.2,0.1-0.3,0.1-0.4,0.1c-0.1,0.2-0.1,0.5-0.1,0.8c0.7,0.1,1.3,0.2,1.9,0.4c0.1-0.2,0.1-0.3,0.1-0.4
	c0-0.1,0-0.2,0.1-0.4C27.2,54.6,27.1,54.6,27,54.5 M32.6,10.7c0.1-0.4,0.1-0.7,0.1-1c0.4-0.1,0.8,0,1.1-0.1c1-0.3,1.3-1.5,0.6-2.3
	c-0.3-0.3-0.7-0.4-1.1-0.5c-0.5-0.1-1.2-0.1-1.7-0.1c-0.1,0-0.2,0-0.4,0c0,0.3-0.1,0.6-0.1,0.8c0.2,0.1,0.3,0.1,0.5,0.1
	c-0.1,1-0.2,2-0.2,2.9c-0.2,0.1-0.4,0.1-0.5,0.1c0,0.2-0.1,0.5-0.1,0.8c0.7,0.1,1.3,0.1,2.1,0.2c0.1-0.3,0.1-0.6,0.1-0.8
	C32.8,10.8,32.8,10.8,32.6,10.7 M48.1,20.1c0.7-1.3,1.3-2.5,2-3.7c-0.4-0.6-0.4-0.6-0.9-0.4c-0.2,0.1-0.5,0.1-0.8,0.2
	c-0.9,0.2-1.8,0.6-2.7,0.8c-0.1-0.1-0.2-0.2-0.4-0.4c-0.2,0.2-0.4,0.4-0.6,0.6c0.4,0.5,0.7,0.9,1,1.3c0.2-0.2,0.5-0.3,0.6-0.6
	c0.1-0.3,0.2-0.3,0.4-0.4c0.2,0.3,0.5,0.6,0.7,0.9c0.1,0.2,0,0.5-0.2,0.5c-0.4,0-0.5,0.3-0.8,0.5c0.4,0.6,0.8,1,1.2,1.5
	c0.2-0.2,0.4-0.4,0.7-0.6C48.3,20.3,48.2,20.2,48.1,20.1 M41.5,13c-0.2-0.2-0.4-0.4-0.6-0.6c-0.9,0.5-1.2,0.5-1.8-0.1
	c0.2-0.1,0.3-0.2,0.5-0.3c0.9-0.6,1.6-1,2.5-1.6c0.3-0.2,0.4-0.4,0.5-0.8c-0.9-0.4-1.8-0.9-2.7-1.3l-0.3,0.1c-0.3,0.3-0.6,0.7-0.9,1
	c0.2,0.2,0.4,0.4,0.7,0.6c0.7-0.6,1-0.6,1.5-0.1c-0.1,0.1-0.2,0.1-0.3,0.2c-0.9,0.6-1.8,1.1-2.7,1.7c-0.3,0.2-0.5,0.4-0.5,0.8
	c1.1,0.5,2.2,1,3.3,1.5C40.9,13.7,41.2,13.4,41.5,13 M41.2,14.5c1,0.7,1.9,1.5,2.9,2.3c0.4-0.3,0.8-0.6,1.2-0.9
	c-0.2-0.2-0.3-0.5-0.5-0.7c-0.8,0.5-1.3,0.1-1.8-0.5c0.2-0.1,0.4-0.1,0.5-0.2c0.9-0.3,1.9-0.7,2.8-1c0.3-0.1,0.5-0.3,0.7-0.7
	c-0.9-0.7-1.7-1.3-2.6-2c-0.4,0.3-0.8,0.6-1.2,0.9c0.2,0.2,0.4,0.5,0.5,0.7c0.7-0.4,1-0.4,1.5,0.2c-0.2,0.1-0.4,0.1-0.5,0.2
	c-0.9,0.3-1.9,0.6-2.8,0.9C41.6,13.9,41.4,14.1,41.2,14.5 M21.1,51.6c-0.2-0.2-0.5-0.3-0.8-0.3c-0.2,0.6-0.5,1.2-0.7,1.8
	c0.3,0.1,0.5,0.2,0.7,0.3c0.1-0.1,0.2-0.2,0.2-0.3c0.4,0.7,1,0.9,1.6,1c0.6,0.1,1.1-0.2,1.3-0.7c0.3-0.6,0.2-1.2-0.3-1.7
	c-0.3-0.3-0.6-0.6-1-0.9c-0.1-0.1-0.4-0.3-0.2-0.6c0.1-0.2,0.4-0.2,0.6-0.1c0.4,0.1,0.7,0.4,0.7,0.9v0.2c0.2,0.1,0.5,0.2,0.7,0.3
	c0.2-0.4,0.3-0.7,0.5-1c0.1-0.1,0.1-0.2,0.1-0.4c-0.6-0.4-0.7-0.4-0.9-0.2c-0.5-0.6-1.1-0.9-1.9-0.7c-1,0.2-1.3,1.2-0.7,2
	c0.2,0.2,0.4,0.4,0.7,0.7c0.2,0.2,0.5,0.4,0.7,0.7c0.2,0.3,0.1,0.6-0.3,0.6C21.3,53.1,20.8,52.5,21.1,51.6 M26,11.8
	c0.6,0.4,1.2,0.2,1.8,0c0.8-0.3,1-1,0.8-1.8c-0.2-0.6-0.6-0.9-1.2-1c-0.3-0.1-0.6-0.1-0.9-0.1c-0.2,0-0.4,0-0.5-0.1
	c-0.1-0.1-0.3-0.1-0.3-0.2c0-0.1,0.1-0.3,0.2-0.4C25.9,8.1,26.1,8,26.2,8c0.5-0.1,0.8,0.1,1,0.6c0.2-0.1,0.5-0.1,0.8-0.2
	c-0.1-0.6-0.2-1-0.3-1.6c-0.4,0.1-0.8-0.1-0.9,0.5c-0.7-0.4-1.3-0.1-1.8,0.4c-0.4,0.3-0.6,0.7-0.5,1.3c0.1,0.5,0.5,0.8,1,0.9
	C26,9.9,26.3,10,26.7,10c0.2,0.1,0.4,0.1,0.5,0.1c0.2,0.1,0.3,0.4,0.2,0.6c-0.3,0.3-0.7,0.4-1.2,0.4c-0.4-0.1-0.6-0.3-0.7-0.7
	l-0.1-0.2c-0.2,0.1-0.5,0.1-0.8,0.2c0.1,0.7,0.2,1.3,0.4,2c0.3-0.1,0.5-0.1,0.8-0.1V11.8L26,11.8z M20.2,49.8
	c0.2-0.6,0.4-1.1,0.6-1.6c-1-0.7-2.1-1.5-3-2.2c-0.2,0.2-0.3,0.4-0.5,0.7c0.1,0.1,0.2,0.2,0.3,0.3c-0.6,0.8-1.2,1.6-1.7,2.4
	c-0.2-0.1-0.2-0.1-0.4-0.2c-0.2,0.2-0.3,0.4-0.5,0.7c1.1,0.8,2.2,1.6,3.3,2.4c0.5-0.5,0.9-1,1.4-1.5c-0.3-0.2-0.5-0.4-0.7-0.5
	c-0.2,0.2-0.5,0.4-0.7,0.5c-0.1,0.1-0.3,0.1-0.4,0c-0.4-0.2-0.7-0.5-1-0.7c0.2-0.4,0.5-0.6,0.7-0.9c0.2,0.1,0.3,0.2,0.4,0.3
	c-0.1,0.1-0.1,0.2-0.1,0.4c0.2,0.2,0.4,0.3,0.7,0.5c0.3-0.4,0.6-0.9,0.9-1.3c-0.2-0.2-0.4-0.3-0.7-0.5c-0.4,0.2-0.4,0.2-0.7-0.2
	c0.2-0.2,0.4-0.5,0.5-0.7c0.2,0.2,0.4,0.3,0.6,0.4c0.5,0.4,0.6,0.4,0.4,1.2v0.1C19.7,49.5,20,49.6,20.2,49.8 M16.3,12.6
	c0.5,0.9,1,1.7,1.6,2.6c-0.2,0.1-0.3,0.2-0.5,0.2c0.2,0.3,0.4,0.5,0.5,0.7c0.5-0.3,1-0.6,1.5-0.9c-0.2-0.2-0.3-0.5-0.4-0.7
	c-0.1,0-0.2,0.1-0.4,0.1c-0.2-0.4-0.5-0.7-0.7-1.2c0.7,0.4,1.3,0.8,2,1.2c0.4,0.2,0.7,0,0.7-0.4c0-0.2-0.1-0.4-0.1-0.6
	c-0.1-0.6-0.1-1-0.2-1.6h0.1c0.2,0.4,0.4,0.7,0.6,1c-0.1,0.1-0.1,0.2-0.2,0.3c0.1,0.2,0.3,0.4,0.4,0.7c0.5-0.4,1.1-0.7,1.6-1
	c-0.2-0.2-0.3-0.5-0.5-0.7c-0.2,0.1-0.3,0.1-0.5,0.2c-0.5-0.9-1-1.7-1.6-2.6c0.1-0.1,0.2-0.2,0.4-0.3c-0.2-0.2-0.3-0.4-0.5-0.7
	c-0.3,0.2-0.6,0.4-0.9,0.6c-0.2,0.1-0.3,0.2-0.2,0.5c0.1,0.6,0.1,1.2,0.2,1.7c0.1,0.4,0.1,0.9,0.1,1.5c-0.2-0.1-0.4-0.2-0.5-0.2
	c-0.8-0.4-1.5-0.9-2.3-1.3c-0.2-0.1-0.3-0.2-0.5-0.1c-0.3,0.2-0.6,0.4-0.9,0.6c0.2,0.2,0.3,0.5,0.5,0.7
	C16.1,12.7,16.2,12.6,16.3,12.6 M42.3,28c-0.9-2.7-1.7-5.3-2.5-8h-18c-0.9,2.6-1.7,5.3-2.5,8h4.2c0.1-0.4,0.2-0.7,0.3-1
	c0.3-0.9,0.7-1.6,1.3-2.3c0.3-0.3,0.6-0.5,1.1-0.5c0.5,0,1,0,1.5,0c0.1,0,0.2,0.1,0.4,0.1v15h-2c-0.1,0.6-0.1,3.9,0,4.2
	c0.7,0.1,9.2,0.1,9.5-0.1c0.1-0.6,0.1-3.8-0.1-4.2c-0.7-0.1-1.3,0-2-0.1c0-0.1-0.1-0.2-0.1-0.2c0-4.8,0-9.7,0-14.5l0.1-0.2v-0.1
	l0.1-0.1c0.6,0,1.3,0.1,1.9,0c0.5-0.1,0.9,0.2,1.1,0.6c0.5,0.9,1,1.7,1.3,2.7c0.1,0.2,0.1,0.3,0.2,0.4L42.3,28L42.3,28L42.3,28z
	 M1.9,31.3C1.8,15.4,14.6,2.1,30.9,2.1c16.1,0,28.9,13.1,28.9,29.2c-0.1,16-12.9,29.1-28.9,29.1C14.6,60.4,1.9,47.1,1.9,31.3"/>
<path class="st0" d="M48.1,17.8c-0.1-0.2-0.2-0.4-0.4-0.6c0.3-0.1,0.5-0.2,0.9-0.2C48.4,17.3,48.2,17.5,48.1,17.8"/>
<path class="st0" d="M32.8,7.7c0.5,0.1,0.7,0.2,0.7,0.6c-0.1,0.3-0.3,0.5-0.8,0.4C32.8,8.3,32.8,8,32.8,7.7"/>
<path class="st0" d="M37.6,53.3c0,0.3,0.1,0.6-0.2,0.7c-0.3,0.1-0.4-0.2-0.5-0.4c-0.3-0.6-0.5-1.3-0.5-2v-0.1c0-0.2,0-0.5,0.3-0.6
	c0.3-0.1,0.4,0.1,0.5,0.3C37.4,52,37.5,52.7,37.6,53.3"/>
</svg>
